<svg width="182" height="63" viewBox="0 0 182 63" fill="none" xmlns="http://www.w3.org/2000/svg">
<path d="M3.39648 31.7055C5.18669 41.3033 18.5642 46.33 25.9089 49.2301C46.0794 56.3559 67.3656 57.9578 88.3699 58.9521C104.151 59.4769 119.956 59.1316 135.663 57.2673C149.212 55.5273 164.061 54.0911 174.925 43.8581C179.695 39.2456 179.891 32.4236 175.538 27.3278C164.012 14.0429 134.167 9.00231 117.871 5.92274C99.9326 2.81555 81.7608 3.76842 63.7116 5.08035C75.4951 5.34273 87.2786 6.17132 98.9762 7.81468C103.979 8.64326 109.202 9.92756 113.298 13.4352C109.484 12.4271 105.536 12.3995 101.649 12.0128C74.367 8.54659 45.6625 5.49464 19.2876 16.1281C13.5246 18.8072 2.88149 23.2263 3.39648 31.7055ZM0 30.6284C1.02998 12.1095 38.4894 5.97798 51.6216 5.27368C49.4881 5.10797 47.3546 4.84558 45.2333 4.50034C48.7769 3.32651 52.3941 2.42888 56.0604 1.90411C63.4664 1.11695 70.9092 0.895999 78.3276 0.385039C91.092 -0.415926 103.881 0.0121759 116.572 1.86268C132.451 4.8732 191.086 13.5457 180.798 41.4966C178.665 46.1781 174.643 49.2715 170.646 51.7434C160.861 57.7645 149.592 59.2559 138.692 60.7612C122.421 62.736 106.063 63.3574 89.7064 62.7774C65.5754 61.6864 40.8314 60.0155 18.0982 50.0863C10.8025 46.5786 0.122617 40.8614 0 30.6284Z" fill="#09B850"/>
</svg>
